<svg xmlns="http://www.w3.org/2000/svg" width="16" height="12">
    <path fill-rule="evenodd" fill="#FFF" d="M15.451 10.9a15.069 15.069 0 0 0-2.653 0l-.988-1.799.399-.4.6.6 1.49-1.491a.83.83 0 0 1-.121-.621L12.225 3.63c-.081.015.375.024-.25.024-.142 0-.278-.024-.407-.065L10.225 5.26v1.269a.744.744 0 0 1-.744.744H6.884v.457h2.422a2.05 2.05 0 0 1 1.454.603 2.053 2.053 0 0 1 0 2.909c-.37.371-.888.603-1.454.603H2.57c-1.08 0-1.597-.232-1.968-.603a2.056 2.056 0 0 1 0-2.909c.37-.372.888-.603 1.968-.603h1.09v-.457H1.305a.744.744 0 0 1-.744-.744V4.795c0-.41.333-.275.744-.275h.565V1.169c0-.561.454-1.015 1.014-1.015H5.67c.561 0 1.015.454 1.015 1.015V4.52h2.18l1.802-2.271c.048-.681.614-.959 1.308-.959.725 0 1.312.327 1.312 1.052 0 .166-.032.324-.088.471l2.161 3.706c.119.021.473.386.473.834a.83.83 0 0 1-.116.422c.45.723 1.083 1.686-.266 3.125zM5.253 1.585H3.301v2.308h1.952V1.585zm.901 7.987v-.649h-.945v.649H4.195v-.649h-.944v.649H2.236v-.649h.334c-.754.001-.966.267-1.124.253a.857.857 0 0 0-.253.611c0 .493.095.453.253.611.158.157.37.253 1.124.253h.646v-.443H4.23v.443h.944v-.443h1.015v.443h.944v-.443h1.014v.443h1.159a.86.86 0 0 0 .611-.253c.823-.158.253-.118.253-.611 0-.24.57-.452-.253-.611-.158.014-.371-.252-.611-.253h-.179v.649H8.112v-.649h-.944v.649H6.154zm5.821-7.668a.438.438 0 1 0 .437.438c0 .648-.196-.438-.437-.438zm3.022 5.336c-.181 0-.328-.069-.328.113a.328.328 0 0 0 .657 0c0-.182-.147-.113-.329-.113z"/>
</svg>
